<svg xmlns="http://www.w3.org/2000/svg" width="97" height="74">
    <defs>
        <linearGradient id="mj1ujzmjca" x1="0%" x2="0%" y1="100%" y2="0%">
            <stop offset="0%" stop-color="#0E89C8"/>
            <stop offset="50%" stop-color="#1A94D3"/>
            <stop offset="100%" stop-color="#1A94D3"/>
            <stop offset="100%" stop-color="#0875AE"/>
            <stop offset="100%" stop-color="#0E89C8"/>
        </linearGradient>
    </defs>
    <path fill="#E2E3E6" fill-rule="evenodd" d="M85.139 73.652H11.875C5.333 73.652.016 68.345.016 61.817V11.835C.016 5.307 5.333 0 11.875 0h73.284c6.542 0 11.86 5.327 11.84 11.855v49.962c0 6.528-5.318 11.835-11.86 11.835zm6.442-11.835V11.855c0-3.545-2.89-6.428-6.442-6.428H11.875c-3.552 0-6.441 2.883-6.441 6.428v49.962c0 3.544 2.889 6.428 6.441 6.428h73.284c3.552 0 6.442-2.884 6.442-6.428h-.02zm-6.482.781c-.542.56-1.244.841-1.966.841-.663 0-1.345-.241-1.867-.741L57.146 39.83l-6.763 6.047c-.501.461-1.163.701-1.806.701-.642 0-1.284-.22-1.805-.681L40.19 40.03 15.929 62.678c-.522.48-1.184.721-1.846.721-.723 0-1.445-.301-1.987-.861-1.023-1.102-.963-2.804.12-3.825l23.9-22.328-24-21.407c-1.124-1-1.224-2.703-.221-3.824 1.004-1.121 2.709-1.222 3.833-.22l25.967 23.188c.16.12.301.241.441.381 0 .02.02.04.04.06l6.381 5.687 32.709-29.297c1.124-1.001 2.83-.901 3.833.201 1.004 1.121.903 2.824-.2 3.824l-23.72 21.227 23.82 22.568c1.083 1.021 1.124 2.743.1 3.825z"/>
    <path fill="url(#mj1ujzmjca)" d="M85.139 73.652H11.875C5.333 73.652.016 68.345.016 61.817V11.835C.016 5.307 5.333 0 11.875 0h73.284c6.542 0 11.86 5.327 11.84 11.855v49.962c0 6.528-5.318 11.835-11.86 11.835zm6.442-11.835V11.855c0-3.545-2.89-6.428-6.442-6.428H11.875c-3.552 0-6.441 2.883-6.441 6.428v49.962c0 3.544 2.889 6.428 6.441 6.428h73.284c3.552 0 6.442-2.884 6.442-6.428h-.02zm-6.482.781c-.542.56-1.244.841-1.966.841-.663 0-1.345-.241-1.867-.741L57.146 39.83l-6.763 6.047c-.501.461-1.163.701-1.806.701-.642 0-1.284-.22-1.805-.681L40.19 40.03 15.929 62.678c-.522.48-1.184.721-1.846.721-.723 0-1.445-.301-1.987-.861-1.023-1.102-.963-2.804.12-3.825l23.9-22.328-24-21.407c-1.124-1-1.224-2.703-.221-3.824 1.004-1.121 2.709-1.222 3.833-.22l25.967 23.188c.16.12.301.241.441.381 0 .02.02.04.04.06l6.381 5.687 32.709-29.297c1.124-1.001 2.83-.901 3.833.201 1.004 1.121.903 2.824-.2 3.824l-23.72 21.227 23.82 22.568c1.083 1.021 1.124 2.743.1 3.825z"/>
</svg>
