<svg xmlns="http://www.w3.org/2000/svg" width="97" height="97">
    <defs>
        <linearGradient id="rqjs7aaeva" x1="0%" x2="0%" y1="100%" y2="0%">
            <stop offset="0%" stop-color="#0E89C8"/>
            <stop offset="50%" stop-color="#1A94D3"/>
            <stop offset="100%" stop-color="#1A94D3"/>
            <stop offset="100%" stop-color="#0875AE"/>
            <stop offset="100%" stop-color="#0E89C8"/>
        </linearGradient>
    </defs>
    <path fill="#1A93D2" fill-rule="evenodd" d="M93.864 46.259c-.163.02-.305.041-.467.041-1.321 0-2.48-.936-2.703-2.279-1.606-9.479-6.076-18.123-12.945-24.999-6.868-6.855-15.505-11.35-24.975-12.957-1.503-.264-2.499-1.668-2.255-3.173.264-1.485 1.666-2.502 3.15-2.238 10.607 1.811 20.26 6.815 27.941 14.503 7.682 7.689 12.681 17.351 14.489 27.969.264 1.485-.752 2.909-2.235 3.133zM52.917 18.127c6.441 1.099 12.314 4.15 16.968 8.808 4.653 4.658 7.702 10.537 8.799 16.985.244 1.505-.752 2.929-2.256 3.173-.162.02-.304.041-.467.041-1.321 0-2.479-.936-2.703-2.279-.914-5.329-3.414-10.17-7.275-14.035s-8.697-6.387-14.021-7.282c-1.504-.244-2.48-1.688-2.215-3.174.264-1.484 1.666-2.481 3.17-2.237zm-.712 46.683c.59.366 1.281.712 2.012 1.078.508.264 1.037.529 1.565.813l6.422-6.407c2.052-2.054 4.45-3.132 6.949-3.132 2.52 0 4.898 1.098 6.869 3.152l11.156 11.209c2.053 2.034 3.13 4.454 3.13 6.976 0 2.502-1.057 4.943-3.069 7.039-.874.915-1.768 1.789-2.642 2.623-1.28 1.241-2.499 2.401-3.556 3.682-.02.041-.061.061-.081.102-3.089 3.356-7.031 5.044-11.725 5.044-.407 0-.854-.02-1.281-.04-6.97-.448-13.208-3.072-17.882-5.289-12.234-5.919-22.943-14.32-31.844-24.959-7.336-8.827-12.253-17.066-15.545-25.954C1.341 37.126-.406 31.593.081 25.653c.326-3.681 1.809-6.855 4.41-9.458L11.4 9.218l.041-.041c2.032-1.953 4.43-2.99 6.909-2.99s4.837 1.037 6.808 2.99c1.321 1.221 2.601 2.522 3.82 3.784.61.651 1.26 1.302 1.89 1.932l5.548 5.553c4.267 4.271 4.267 9.805 0 14.076-.569.57-1.138 1.16-1.707 1.729-1.504 1.526-3.048 3.112-4.715 4.638 1.24 2.746 2.947 5.451 5.487 8.665 5.243 6.448 10.709 11.431 16.724 15.256zM31.173 52.972c-3.089-3.926-5.121-7.222-6.564-10.72l-.061-.183c-.366-1.16-.691-2.868 1.057-4.618.02-.04.061-.061.102-.102 1.767-1.586 3.393-3.214 5.1-4.963.589-.569 1.158-1.159 1.748-1.749 2.154-2.156 2.154-4.149 0-6.306l-5.548-5.553c-.65-.671-1.3-1.322-1.931-1.973-1.239-1.282-2.418-2.482-3.657-3.641l-.061-.061c-.65-.651-1.687-1.424-2.967-1.424-1.037 0-2.093.509-3.089 1.444L8.373 20.06c-1.687 1.688-2.602 3.661-2.805 6.041-.305 3.722.386 7.669 2.276 12.733 3.069 8.3 7.702 16.029 14.632 24.389 8.392 10.028 18.492 17.941 29.994 23.514 4.206 2.014 9.815 4.374 15.85 4.76.305.021.63.021.935.021 3.17 0 5.588-1.038 7.641-3.235 1.26-1.485 2.601-2.807 3.922-4.068.874-.854 1.686-1.627 2.479-2.482 2.073-2.156 2.073-4.291-.02-6.366L72.08 64.159l-.041-.041c-.63-.691-1.666-1.485-2.926-1.485-1.28 0-2.378.834-3.069 1.526l-6.95 6.957c-.345.345-1.402 1.403-3.088 1.403-.671 0-1.321-.163-2.012-.508-.082-.041-.163-.102-.244-.143-.589-.366-1.28-.712-2.012-1.078-.813-.407-1.666-.834-2.499-1.363-6.524-4.129-12.437-9.52-18.046-16.435l-.02-.02z"/>
    <path fill="url(#rqjs7aaeva)" d="M93.864 46.259c-.163.02-.305.041-.467.041-1.321 0-2.48-.936-2.703-2.279-1.606-9.479-6.076-18.123-12.945-24.999-6.868-6.855-15.505-11.35-24.975-12.957-1.503-.264-2.499-1.668-2.255-3.173.264-1.485 1.666-2.502 3.15-2.238 10.607 1.811 20.26 6.815 27.941 14.503 7.682 7.689 12.681 17.351 14.489 27.969.264 1.485-.752 2.909-2.235 3.133zM52.917 18.127c6.441 1.099 12.314 4.15 16.968 8.808 4.653 4.658 7.702 10.537 8.799 16.985.244 1.505-.752 2.929-2.256 3.173-.162.02-.304.041-.467.041-1.321 0-2.479-.936-2.703-2.279-.914-5.329-3.414-10.17-7.275-14.035s-8.697-6.387-14.021-7.282c-1.504-.244-2.48-1.688-2.215-3.174.264-1.484 1.666-2.481 3.17-2.237zm-.712 46.683c.59.366 1.281.712 2.012 1.078.508.264 1.037.529 1.565.813l6.422-6.407c2.052-2.054 4.45-3.132 6.949-3.132 2.52 0 4.898 1.098 6.869 3.152l11.156 11.209c2.053 2.034 3.13 4.454 3.13 6.976 0 2.502-1.057 4.943-3.069 7.039-.874.915-1.768 1.789-2.642 2.623-1.28 1.241-2.499 2.401-3.556 3.682-.02.041-.061.061-.081.102-3.089 3.356-7.031 5.044-11.725 5.044-.407 0-.854-.02-1.281-.04-6.97-.448-13.208-3.072-17.882-5.289-12.234-5.919-22.943-14.32-31.844-24.959-7.336-8.827-12.253-17.066-15.545-25.954C1.341 37.126-.406 31.593.081 25.653c.326-3.681 1.809-6.855 4.41-9.458L11.4 9.218l.041-.041c2.032-1.953 4.43-2.99 6.909-2.99s4.837 1.037 6.808 2.99c1.321 1.221 2.601 2.522 3.82 3.784.61.651 1.26 1.302 1.89 1.932l5.548 5.553c4.267 4.271 4.267 9.805 0 14.076-.569.57-1.138 1.16-1.707 1.729-1.504 1.526-3.048 3.112-4.715 4.638 1.24 2.746 2.947 5.451 5.487 8.665 5.243 6.448 10.709 11.431 16.724 15.256zM31.173 52.972c-3.089-3.926-5.121-7.222-6.564-10.72l-.061-.183c-.366-1.16-.691-2.868 1.057-4.618.02-.04.061-.061.102-.102 1.767-1.586 3.393-3.214 5.1-4.963.589-.569 1.158-1.159 1.748-1.749 2.154-2.156 2.154-4.149 0-6.306l-5.548-5.553c-.65-.671-1.3-1.322-1.931-1.973-1.239-1.282-2.418-2.482-3.657-3.641l-.061-.061c-.65-.651-1.687-1.424-2.967-1.424-1.037 0-2.093.509-3.089 1.444L8.373 20.06c-1.687 1.688-2.602 3.661-2.805 6.041-.305 3.722.386 7.669 2.276 12.733 3.069 8.3 7.702 16.029 14.632 24.389 8.392 10.028 18.492 17.941 29.994 23.514 4.206 2.014 9.815 4.374 15.85 4.76.305.021.63.021.935.021 3.17 0 5.588-1.038 7.641-3.235 1.26-1.485 2.601-2.807 3.922-4.068.874-.854 1.686-1.627 2.479-2.482 2.073-2.156 2.073-4.291-.02-6.366L72.08 64.159l-.041-.041c-.63-.691-1.666-1.485-2.926-1.485-1.28 0-2.378.834-3.069 1.526l-6.95 6.957c-.345.345-1.402 1.403-3.088 1.403-.671 0-1.321-.163-2.012-.508-.082-.041-.163-.102-.244-.143-.589-.366-1.28-.712-2.012-1.078-.813-.407-1.666-.834-2.499-1.363-6.524-4.129-12.437-9.52-18.046-16.435l-.02-.02z"/>
</svg>
